<svg width="24" height="24" viewBox="0 0 24 24" fill="none" xmlns="http://www.w3.org/2000/svg">
<path d="M16.95 12.707L19.778 9.87904C21.34 8.31704 21.34 5.78404 19.778 4.22204V4.22204C18.216 2.66004 15.683 2.66004 14.121 4.22204L11.293 7.05004" stroke="white" stroke-width="1.5" stroke-linecap="round" stroke-linejoin="round"/>
<path d="M7.05004 11.293L4.22204 14.121C2.66004 15.683 2.66004 18.216 4.22204 19.778V19.778C5.78404 21.34 8.31704 21.34 9.87904 19.778L12.707 16.95" stroke="white" stroke-width="1.5" stroke-linecap="round" stroke-linejoin="round"/>
<path d="M5.64002 8.45999L3.52002 7.75999" stroke="white" stroke-width="1.5" stroke-linecap="round" stroke-linejoin="round"/>
<path d="M8.45999 5.64002L7.75999 3.52002" stroke="white" stroke-width="1.5" stroke-linecap="round" stroke-linejoin="round"/>
<path d="M18.36 15.54L20.49 16.24" stroke="white" stroke-width="1.5" stroke-linecap="round" stroke-linejoin="round"/>
<path d="M15.54 18.36L16.24 20.49" stroke="white" stroke-width="1.5" stroke-linecap="round" stroke-linejoin="round"/>
<path d="M9.17004 14.83L14.83 9.17004" stroke="white" stroke-width="1.5" stroke-linecap="round" stroke-linejoin="round"/>
</svg>
