<svg width="18" height="18" viewBox="0 0 18 18" fill="none" xmlns="http://www.w3.org/2000/svg">
<path d="M9 12.6C11.107 12.6 12.8205 10.9854 12.8205 9C12.8205 7.0146 11.107 5.4 9 5.4C6.89299 5.4 5.17949 7.0146 5.17949 9C5.17949 10.9854 6.89299 12.6 9 12.6ZM9 7.2C10.0354 7.2 10.9103 8.0244 10.9103 9C10.9103 9.9756 10.0354 10.8 9 10.8C7.96464 10.8 7.08975 9.9756 7.08975 9C7.08975 8.0244 7.96464 7.2 9 7.2Z" fill="white"/>
<path d="M0.255811 12.7224L1.21094 14.2794C1.71811 15.1047 2.93876 15.4143 3.81844 14.9364L4.3237 14.661C4.87628 15.0706 5.48552 15.4073 6.13462 15.6618V16.2C6.13462 17.1927 6.99137 18 8.04487 18H9.95513C11.0086 18 11.8654 17.1927 11.8654 16.2V15.6618C12.5143 15.4072 13.1235 15.0709 13.6763 14.6619L14.1816 14.9373C15.0631 15.4143 16.2809 15.1065 16.79 14.2794L17.7442 12.7233C17.9973 12.3099 18.066 11.8188 17.935 11.3578C17.8041 10.8967 17.4844 10.5035 17.046 10.2645L16.5637 10.0017C16.6662 9.338 16.6662 8.6638 16.5637 8.0001L17.046 7.7373C17.4842 7.49811 17.8038 7.1049 17.9347 6.64394C18.0656 6.18298 17.9971 5.69192 17.7442 5.2785L16.79 3.7224C16.2828 2.8944 15.0631 2.5839 14.1816 3.0636L13.6763 3.339C13.1237 2.92942 12.5145 2.59272 11.8654 2.3382V1.8C11.8654 0.8073 11.0086 0 9.95513 0H8.04487C6.99137 0 6.13462 0.8073 6.13462 1.8V2.3382C5.48575 2.59276 4.87654 2.92913 4.3237 3.3381L3.81844 3.0627C2.9359 2.5848 1.71716 2.8944 1.20998 3.7215L0.255811 5.2776C0.00268547 5.69097 -0.0659603 6.18211 0.0649526 6.64314C0.195866 7.10417 0.515631 7.49738 0.954009 7.7364L1.43635 7.9992C1.33342 8.66257 1.33342 9.33653 1.43635 9.9999L0.954009 10.2627C0.515759 10.5021 0.196143 10.8954 0.0652564 11.3565C-0.0656302 11.8176 0.00289777 12.3088 0.255811 12.7224ZM3.43256 10.2402C3.32472 9.83461 3.26987 9.41813 3.26924 9C3.26924 8.5842 3.32463 8.1666 3.43161 7.7598C3.48198 7.57019 3.46541 7.37029 3.38441 7.19035C3.30341 7.01041 3.16239 6.86025 2.9827 6.7626L1.91009 6.1776L2.86331 4.6215L3.95693 5.2173C4.13528 5.31454 4.34228 5.35465 4.54688 5.33161C4.75148 5.30857 4.94262 5.22361 5.09162 5.0895C5.73778 4.5104 6.51698 4.07953 7.36864 3.8304C7.56428 3.77412 7.73557 3.66015 7.8573 3.50526C7.97904 3.35037 8.04479 3.16274 8.04487 2.97V1.8H9.95513V2.97C9.95521 3.16274 10.021 3.35037 10.1427 3.50526C10.2644 3.66015 10.4357 3.77412 10.6314 3.8304C11.4828 4.07989 12.262 4.51071 12.9084 5.0895C13.0575 5.22335 13.2487 5.30813 13.4532 5.33116C13.6577 5.3542 13.8646 5.31426 14.0431 5.2173L15.1357 4.6224L16.0909 6.1785L15.0173 6.7626C14.8377 6.86036 14.6968 7.01053 14.6158 7.19044C14.5348 7.37034 14.5182 7.57019 14.5684 7.7598C14.6754 8.1666 14.7308 8.5842 14.7308 9C14.7308 9.4149 14.6754 9.8325 14.5674 10.2402C14.5173 10.4299 14.5341 10.6298 14.6153 10.8097C14.6964 10.9897 14.8376 11.1398 15.0173 11.2374L16.0899 11.8215L15.1367 13.3776L14.0431 12.7827C13.8648 12.6853 13.6577 12.6451 13.4531 12.6682C13.2485 12.6912 13.0573 12.7763 12.9084 12.9105C12.2622 13.4896 11.483 13.9205 10.6314 14.1696C10.4357 14.2259 10.2644 14.3399 10.1427 14.4947C10.021 14.6496 9.95521 14.8373 9.95513 15.03L9.95704 16.2H8.04487V15.03C8.04479 14.8373 7.97904 14.6496 7.8573 14.4947C7.73557 14.3399 7.56428 14.2259 7.36864 14.1696C6.51715 13.9201 5.73803 13.4893 5.09162 12.9105C4.94291 12.7759 4.75165 12.6906 4.54686 12.6677C4.34208 12.6448 4.13495 12.6855 3.95693 12.7836L2.86426 13.3794L1.90914 11.8233L2.9827 11.2374C3.16245 11.1398 3.30357 10.9897 3.38474 10.8097C3.4659 10.6298 3.48269 10.4299 3.43256 10.2402Z" fill="white"/>
</svg>
