<svg width="24" height="24" viewBox="0 0 24 24" fill="none" xmlns="http://www.w3.org/2000/svg">
<path d="M21.4453 19.3594L17.1094 15.0234C17.6875 14.0703 17.9766 13.0469 17.9766 11.9531C17.9766 10.5625 17.5508 9.32812 16.6992 8.25C15.8477 7.17188 14.7656 6.46094 13.4531 6.11719V0C15.4219 0.25 17.207 0.929688 18.8086 2.03906C20.4102 3.14844 21.6758 4.57422 22.6055 6.31641C23.5352 8.05859 24 9.9375 24 11.9531C24 14.7031 23.1484 17.1719 21.4453 19.3594ZM6.14062 10.4297H0C0.34375 7.71094 1.48828 5.37891 3.43359 3.43359C5.37891 1.48828 7.71094 0.34375 10.4297 0V6.11719C9.38281 6.39844 8.47266 6.92578 7.69922 7.69922C6.92578 8.47266 6.40625 9.38281 6.14062 10.4297ZM6.11719 13.4531C6.46094 14.7656 7.17188 15.8477 8.25 16.6992C9.32812 17.5508 10.5625 17.9766 11.9531 17.9766C13.0469 17.9766 14.0703 17.6875 15.0234 17.1094L19.3594 21.4453C17.1719 23.1484 14.7031 24 11.9531 24C9.9375 24 8.05859 23.5352 6.31641 22.6055C4.57422 21.6758 3.14844 20.4102 2.03906 18.8086C0.929688 17.207 0.25 15.4219 0 13.4531H6.11719Z" fill="white"/>
</svg>
