<svg width="24" height="24" viewBox="0 0 24 24" fill="none" xmlns="http://www.w3.org/2000/svg">
<path d="M8.56543 8.42065L11.1135 3.53735C11.2859 3.20708 11.6275 3 12.0001 3C12.3726 3 12.7142 3.20708 12.8866 3.53735L15.4347 8.42065" stroke="white" stroke-width="1.5" stroke-linecap="round" stroke-linejoin="round"/>
<path d="M8.56535 8.42065L3.83498 9.217C3.4676 9.27885 3.16506 9.5398 3.04994 9.89412C2.93482 10.2484 3.02621 10.6374 3.28707 10.9033L6.80707 14.4922" stroke="white" stroke-width="1.5" stroke-linecap="round" stroke-linejoin="round"/>
<path d="M15.4346 8.42065L20.1649 9.217C20.5323 9.27885 20.8349 9.5398 20.95 9.89412C21.0651 10.2484 20.9737 10.6374 20.7129 10.9033L17.1929 14.4922" stroke="white" stroke-width="1.5" stroke-linecap="round" stroke-linejoin="round"/>
<path d="M6.80695 14.4922L6.01135 19.8512C5.95665 20.2197 6.11135 20.5881 6.41275 20.807C6.71415 21.026 7.11229 21.0593 7.44586 20.8934L11.9999 18.6283" stroke="white" stroke-width="1.5" stroke-linecap="round" stroke-linejoin="round"/>
<path d="M17.193 14.4922L17.9886 19.8512C18.0433 20.2197 17.8886 20.5881 17.5872 20.807C17.2858 21.026 16.8877 21.0593 16.5541 20.8934L12 18.6283" stroke="white" stroke-width="1.5" stroke-linecap="round" stroke-linejoin="round"/>
</svg>
